# xmcd
#
# Track frame offsets:
#	150
#	8101
#	16625
#	28663
#	39305
#	51851
#	64357
#	79125
#	88614
#	98830
#	106747
#	118896
#	139305
#
# Disc length: 2087 seconds
#
# Revision: 1
# Processed by: cddbd v1.4PL0 Copyright (c) Steve Scherf et al.
# Submitted via: audiograbber 1.80.04
#
DISCID=a108250d
DTITLE=Blazin' M Cowboys - Cowboy Jubilee
DYEAR=1999
DGENRE=Country
TTITLE0=Cowboy Jubilee
TTITLE1=Roundup Time
TTITLE2=Blue Shadows
TTITLE3=Cimarron
TTITLE4=Streets of Laredo
TTITLE5=Texas Plains
TTITLE6=Rindercella
TTITLE7=Song of the Bandit
TTITLE8=Get Along Little Dogies
TTITLE9=Rocky Mountain Express
TTITLE10=Tumbling Tumbleweeds
TTITLE11=Dueling Guitars
TTITLE12=My Arizona Home
EXTD=
EXTT0=
EXTT1=
EXTT2=
EXTT3=
EXTT4=
EXTT5=
EXTT6=
EXTT7=
EXTT8=
EXTT9=
EXTT10=
EXTT11=
EXTT12=
PLAYORDER=
